<svg width="15" height="14" viewBox="0 0 15 14" fill="none" xmlns="http://www.w3.org/2000/svg">
<path d="M0.547961 0.754799L0.547933 0.754773C0.513814 0.722929 0.504704 0.696919 0.501654 0.680375C0.49807 0.660931 0.499845 0.635927 0.512103 0.608347C0.535403 0.555927 0.594167 0.5 0.703942 0.5H14.2962C14.4065 0.5 14.4648 0.555986 14.4879 0.608131C14.5002 0.635716 14.5019 0.660849 14.4983 0.680482C14.4952 0.697232 14.486 0.723191 14.4522 0.754784L14.4522 0.754794L9.03381 5.81257L8.875 5.96081V6.17807V13.3432C8.875 13.3888 8.85186 13.4394 8.77809 13.475C8.7021 13.5116 8.61322 13.5087 8.54213 13.4622L8.54206 13.4622L6.19842 11.9316C6.19838 11.9315 6.19835 11.9315 6.19831 11.9315C6.14349 11.8956 6.125 11.8482 6.125 11.8125V6.17807V5.96082L5.96618 5.81257L0.547961 0.754799Z" stroke="#005CE8"/>
</svg>
